<svg width="24" height="24" viewBox="0 0 24 24" fill="none" xmlns="http://www.w3.org/2000/svg">
<path d="M10.0449 3.14941C11.0615 2.33305 12.655 2.28692 13.7568 3.00684L13.9707 3.16113L20.5156 8.39648V8.39746C20.8936 8.70556 21.2215 9.18882 21.4326 9.74121C21.6427 10.2911 21.7209 10.8673 21.6484 11.3477L20.3896 18.8848C20.1406 20.3182 18.7454 21.5 17.3018 21.5H6.70215C5.32896 21.5 4.04504 20.4867 3.68457 19.1641L3.625 18.8955L2.36523 11.3574V11.3564L2.3418 11.1709C2.30368 10.7279 2.38257 10.2244 2.56641 9.74219C2.75024 9.2601 3.0266 8.83066 3.35156 8.52441L3.49414 8.40039L10.0449 3.15039V3.14941ZM12.002 13.75C11.3158 13.75 10.752 14.3139 10.752 15V18C10.752 18.6861 11.3158 19.25 12.002 19.25C12.6881 19.25 13.252 18.6861 13.252 18V15C13.2519 14.3139 12.6881 13.75 12.002 13.75Z" fill="#AAAAAA" stroke="#AAAAAA"/>
</svg>
