<svg width="24" height="24" viewBox="0 0 24 24" fill="none" xmlns="http://www.w3.org/2000/svg">
<path d="M17.1016 2.6626C18.1157 2.38528 18.8898 2.48134 19.4209 2.83252L19.5244 2.90576L19.5303 2.91064C20.0656 3.31027 20.3896 4.02611 20.3896 5.18018V16.48C20.3896 18.1837 19.0035 19.5696 17.2998 19.5698C15.605 19.5698 14.209 18.1829 14.209 16.48C14.209 14.788 15.6042 13.3999 17.2998 13.3999C18.0194 13.4 18.6621 13.6473 19.1904 14.063L19.999 14.6997V7.05811L19.3623 7.23877L10.1523 9.85889L9.78906 9.9624V18.4097C9.78906 20.1126 8.39398 21.5005 6.69922 21.5005C4.99543 21.5004 3.60938 20.1135 3.60938 18.4097C3.60959 16.717 4.99466 15.3297 6.69922 15.3296C7.4085 15.3296 8.05307 15.5769 8.58398 15.9858L9.38965 16.6069V6.75049C9.38965 5.58739 10.0353 4.68375 11.1006 4.31006L11.3193 4.24268H11.3213L17.1016 2.6626Z" fill="#CCCCCC" stroke="#CCCCCC"/>
</svg>
