<svg width="24" height="24" viewBox="0 0 24 24" fill="none" xmlns="http://www.w3.org/2000/svg">
<path d="M12.0215 2.5498C15.3647 2.54997 18.0908 5.27563 18.0908 8.62988V10.5C18.0908 10.8024 18.1581 11.1686 18.251 11.501C18.3434 11.8318 18.4758 12.1779 18.6328 12.4365V12.4375L19.7627 14.3174C20.0955 14.8788 20.1582 15.5389 19.9336 16.1426C19.7345 16.6689 19.3436 17.095 18.8291 17.335L18.6016 17.4258C17.6775 17.7337 16.7327 17.9818 15.7803 18.1562L15.3721 18.2256L15.3613 18.2275L15.0762 18.2715L15.0576 18.2734L15.0391 18.2764L14.5264 18.3428L14.5137 18.3447C14.4107 18.3588 14.3046 18.3701 14.1953 18.3809L13.8574 18.4121H13.8525C13.2491 18.4705 12.6355 18.5 12.0215 18.5C11.5532 18.5 11.0848 18.4831 10.6211 18.4502L10.1582 18.4121L10.1484 18.4111L9.76953 18.376L9.39746 18.3252L9.3877 18.3242L8.95215 18.2646H8.95117C8.89053 18.2541 8.83222 18.2458 8.78418 18.2393L8.64062 18.2178L8.63574 18.2168L7.82324 18.0645C7.14964 17.9256 6.48423 17.7573 5.82422 17.5527L5.42969 17.4258L5.42578 17.4238L5.18555 17.332C4.72228 17.1238 4.36421 16.7807 4.15332 16.3682L4.06055 16.1562L4.05957 16.1543L3.99414 15.9395C3.87157 15.4274 3.96341 14.845 4.28223 14.3037L4.28125 14.3027L5.41016 12.4277L5.41309 12.4229C5.56325 12.1663 5.69191 11.8199 5.7832 11.4883C5.87428 11.1573 5.94134 10.7922 5.94141 10.4902V8.62988C5.94141 5.27763 8.66579 2.55963 12.0215 2.5498ZM11.9912 5.63965C11.2952 5.63965 10.7317 6.20345 10.7314 6.89941V10C10.7316 10.6961 11.2951 11.2598 11.9912 11.2598C12.6873 11.2597 13.2509 10.696 13.251 10V6.89941C13.2508 6.20346 12.6872 5.63967 11.9912 5.63965Z" fill="#CCCCCC" stroke="#CCCCCC"/>
<path d="M10.2461 20.627V20.6279C10.8279 20.679 11.4226 20.71 12.0195 20.71C12.4601 20.71 12.8995 20.6924 13.333 20.6621L13.7637 20.6279H13.7676C13.8099 20.6239 13.8566 20.6192 13.9062 20.6152C13.4451 21.1563 12.7616 21.4999 12 21.5C11.3411 21.5 10.6919 21.2318 10.2393 20.7627L10.2217 20.7451L10.1299 20.6523C10.118 20.6395 10.1073 20.6255 10.0957 20.6123C10.1457 20.6172 10.1958 20.6227 10.2461 20.627Z" fill="#3D4754" stroke="#CCCCCC"/>
</svg>
