<svg width="155" height="137" viewBox="0 0 155 137" fill="none" xmlns="http://www.w3.org/2000/svg">
<path fill-rule="evenodd" clip-rule="evenodd" d="M88.7523 115.583H20.415C15.6051 115.583 11.668 111.635 11.668 106.809V9.3564C11.668 4.53032 15.6051 0.583496 20.415 0.583496H88.7523C93.5641 0.583496 97.5013 4.53032 97.5013 9.3564V106.809C97.5013 111.635 93.5641 115.583 88.7523 115.583Z" fill="#D5D7DA"/>
<path fill-rule="evenodd" clip-rule="evenodd" d="M82.9163 119.75H14.5791C9.7692 119.75 5.83203 115.801 5.83203 110.975V13.5229C5.83203 8.69682 9.7692 4.75 14.5791 4.75H82.9163C87.7282 4.75 91.6654 8.69682 91.6654 13.5229V110.975C91.6654 115.801 87.7282 119.75 82.9163 119.75Z" fill="#E8EBF2"/>
<path fill-rule="evenodd" clip-rule="evenodd" d="M77.2436 123.04H8.76515C3.9453 123.04 0 119.108 0 114.302V17.2532C0 12.4471 3.9453 8.5166 8.76515 8.5166H77.2436C82.0655 8.5166 86.0108 12.4471 86.0108 17.2532V114.302C86.0108 119.108 82.0655 123.04 77.2436 123.04Z" fill="#D8DBEA"/>
<path fill-rule="evenodd" clip-rule="evenodd" d="M77.2436 123.04H8.76515C3.9453 123.04 0 119.108 0 114.302V17.2532C0 12.4471 3.9453 8.5166 8.76515 8.5166H77.2436C82.0655 8.5166 86.0108 12.4471 86.0108 17.2532V114.302C86.0108 119.108 82.0655 123.04 77.2436 123.04Z" fill="#F5F5F5"/>
<path fill-rule="evenodd" clip-rule="evenodd" d="M67.3745 38.0835H16.7948C15.3503 38.0835 14.168 36.9586 14.168 35.5844C14.168 34.2084 15.3503 33.0835 16.7948 33.0835H67.3745C68.8189 33.0835 70.0013 34.2084 70.0013 35.5844C70.0013 36.9586 68.8189 38.0835 67.3745 38.0835Z" fill="#E9EAEB"/>
<path fill-rule="evenodd" clip-rule="evenodd" d="M67.3745 53.0835H16.7948C15.3503 53.0835 14.168 51.9586 14.168 50.5844C14.168 49.2084 15.3503 48.0835 16.7948 48.0835H67.3745C68.8189 48.0835 70.0013 49.2084 70.0013 50.5844C70.0013 51.9586 68.8189 53.0835 67.3745 53.0835Z" fill="#E9EAEB"/>
<path fill-rule="evenodd" clip-rule="evenodd" d="M67.3745 68.0835H16.7948C15.3503 68.0835 14.168 66.9586 14.168 65.5844C14.168 64.2102 15.3503 63.0835 16.7948 63.0835H67.3745C68.8189 63.0835 70.0013 64.2102 70.0013 65.5844C70.0013 66.9586 68.8189 68.0835 67.3745 68.0835Z" fill="#E9EAEB"/>
<path fill-rule="evenodd" clip-rule="evenodd" d="M67.3745 83.0835H16.7948C15.3503 83.0835 14.168 81.9586 14.168 80.5844C14.168 79.2084 15.3503 78.0835 16.7948 78.0835H67.3745C68.8189 78.0835 70.0013 79.2084 70.0013 80.5844C70.0013 81.9586 68.8189 83.0835 67.3745 83.0835Z" fill="#E9EAEB"/>
<path fill-rule="evenodd" clip-rule="evenodd" d="M43.1966 98.0835H16.806C15.3554 98.0835 14.168 96.9586 14.168 95.5844C14.168 94.2084 15.3554 93.0835 16.806 93.0835H43.1966C44.6472 93.0835 45.8346 94.2084 45.8346 95.5844C45.8346 96.9586 44.6472 98.0835 43.1966 98.0835Z" fill="#E9EAEB"/>
<path fill-rule="evenodd" clip-rule="evenodd" d="M96.4638 78.6976C86.3498 88.8098 70.6923 89.9506 59.325 82.1433C57.8722 81.1276 56.4895 79.9868 55.2001 78.6976C54.5363 78.0361 53.9107 77.3533 53.3211 76.6345C52.1419 75.199 51.1091 73.668 50.263 72.0862C48.7721 69.4145 47.7583 66.5795 47.2048 63.6491C45.4191 54.4593 48.0892 44.5677 55.2001 37.4601C62.328 30.3313 72.2213 27.6787 81.4127 29.4471C84.3415 30.0175 87.1791 31.031 89.8512 32.5047C91.4354 33.3698 92.9454 34.4025 94.3833 35.5814C95.1001 36.1687 95.783 36.7964 96.4447 37.4601C97.7362 38.7493 98.8942 40.1297 99.8909 41.5843C107.702 52.9475 106.559 68.6045 96.4638 78.6976Z" fill="white" fill-opacity="0.1"/>
<path fill-rule="evenodd" clip-rule="evenodd" d="M93.6324 76.7054C83.1102 87.2295 66.0582 87.2275 55.5341 76.7054C45.0237 66.195 45.0237 49.141 55.5478 38.6188C66.0582 28.1084 83.1102 28.1084 93.6206 38.6188C104.143 49.141 104.143 66.195 93.6324 76.7054ZM99.0325 33.2126C85.5263 19.7065 63.6401 19.7065 50.134 33.2126C36.6298 46.7168 36.6181 68.6167 50.1222 82.1229C62.4144 94.4111 81.6809 95.5193 95.232 85.4299C96.5556 84.4431 97.8303 83.3368 99.0462 82.1229C100.26 80.9069 101.366 79.6323 102.351 78.3087C112.441 64.7556 111.323 45.5028 99.0325 33.2126Z" fill="#E9EAEB"/>
<path fill-rule="evenodd" clip-rule="evenodd" d="M152.184 133.035L151.617 133.602C147.865 137.355 141.723 137.355 137.969 133.602L103.332 98.9649L117.546 84.7505L152.184 119.388C155.937 123.141 155.937 129.282 152.184 133.035Z" fill="url(#paint0_linear_206_13357)"/>
<path fill-rule="evenodd" clip-rule="evenodd" d="M103.097 77.2505L113.332 87.486L106.066 94.7505L95.832 84.515C97.1826 83.5081 98.4813 82.3792 99.724 81.1405C100.963 79.9018 102.092 78.6011 103.097 77.2505Z" fill="#E9EAEB"/>
<path fill-rule="evenodd" clip-rule="evenodd" d="M151.667 118.962L137.543 133.084L135 130.539L149.122 116.417L151.667 118.962Z" fill="#1AAA65"/>
<path fill-rule="evenodd" clip-rule="evenodd" d="M118.335 85.2392L103.824 99.7502L101.668 97.5945L116.179 83.0835L118.335 85.2392Z" fill="url(#paint1_linear_206_13357)"/>
<path fill-rule="evenodd" clip-rule="evenodd" d="M86.6654 34.9993L51.0791 70.5838C49.7389 68.1819 48.8277 65.6332 48.332 62.9987L79.0799 32.2505C81.7126 32.7652 84.2633 33.6745 86.6654 34.9993Z" fill="#E9EAEB"/>
<path fill-rule="evenodd" clip-rule="evenodd" d="M98.3346 43.4571L59.862 79.7502C58.4843 78.8432 57.1729 77.8223 55.95 76.6687C55.3205 76.0748 54.7251 75.4657 54.168 74.8224L93.1092 38.0835C93.7911 38.611 94.4387 39.1726 95.0662 39.7666C96.2891 40.9202 97.3893 42.1555 98.3346 43.4571Z" fill="#E9EAEB"/>
<defs>
<linearGradient id="paint0_linear_206_13357" x1="129.165" y1="58.9172" x2="77.4987" y2="110.584" gradientUnits="userSpaceOnUse">
<stop stop-color="#3EEF9A"/>
<stop offset="1" stop-color="#40C987"/>
</linearGradient>
<linearGradient id="paint1_linear_206_13357" x1="110.001" y1="74.7502" x2="93.3346" y2="91.4168" gradientUnits="userSpaceOnUse">
<stop stop-color="#1AAA65"/>
<stop offset="1" stop-color="#43CF8C"/>
</linearGradient>
</defs>
</svg>
