<svg width="24" height="24" viewBox="0 0 24 24" fill="none" xmlns="http://www.w3.org/2000/svg">
<path d="M12.0029 2.50244C12.57 2.50244 13.1145 2.63017 13.5176 2.86182V2.86279L18.6787 5.84717C19.7505 6.569 20.1886 6.91101 20.4111 7.29639C20.6257 7.66807 20.668 8.13322 20.668 9.27979V14.7202C20.668 15.8667 20.6261 16.3335 20.415 16.7036C20.1971 17.0856 19.7681 17.4211 18.7158 18.1333L13.5088 21.1372L13.5039 21.1401C13.11 21.3733 12.5634 21.4995 11.998 21.4995C11.5044 21.4995 11.0227 21.4034 10.6377 21.2212L10.4785 21.1372L5.31738 18.1519C4.24698 17.4309 3.80756 17.0871 3.58496 16.6997C3.36974 16.3251 3.32812 15.8557 3.32812 14.7095V9.27979C3.32813 8.13321 3.36998 7.66649 3.58105 7.29639C3.79891 6.91444 4.22723 6.57778 5.2793 5.86572L10.4883 2.86279L10.4873 2.86182C10.8905 2.62982 11.4354 2.50247 12.0029 2.50244ZM11.998 8.24951C9.93208 8.24955 8.24828 9.93359 8.24805 11.9995C8.24805 14.0656 9.93194 15.7495 11.998 15.7495C14.0642 15.7495 15.748 14.0657 15.748 11.9995C15.7478 9.93357 14.064 8.24951 11.998 8.24951Z" fill="#CCCCCC" stroke="#CCCCCC"/>
</svg>
