<svg width="24" height="24" viewBox="0 0 24 24" fill="none" xmlns="http://www.w3.org/2000/svg">
<path d="M2 7.80978V16.1898C2 17.6798 2.36 18.9198 3.05 19.8698C3.34 20.2898 3.71 20.6598 4.13 20.9498C4.95 21.5498 5.99 21.8998 7.22 21.9798V2.02979C3.94 2.23979 2 4.36978 2 7.80978Z" fill="#D5D7DA"/>
<path d="M20.9488 4.13C20.6588 3.71 20.2888 3.34 19.8688 3.05C18.9188 2.36 17.6788 2 16.1888 2H8.71875V22H16.1888C19.8288 22 21.9987 19.83 21.9987 16.19V7.81C21.9987 6.32 21.6388 5.08 20.9488 4.13ZM15.4987 14.03C15.7887 14.32 15.7887 14.8 15.4987 15.09C15.3487 15.24 15.1588 15.31 14.9688 15.31C14.7787 15.31 14.5887 15.24 14.4387 15.09L11.8787 12.53C11.5887 12.24 11.5887 11.76 11.8787 11.47L14.4387 8.91C14.7287 8.62 15.2087 8.62 15.4987 8.91C15.7887 9.2 15.7887 9.68 15.4987 9.97L13.4787 12L15.4987 14.03Z" fill="#D5D7DA"/>
</svg>
