<svg width="16" height="21" viewBox="0 0 16 21" fill="none" xmlns="http://www.w3.org/2000/svg">
<mask id="path-1-outside-1_279_12407" maskUnits="userSpaceOnUse" x="0" y="-0.590773" width="16.132" height="22.1815" fill="black">
<rect fill="white" y="-0.590773" width="16.132" height="22.1815"/>
<path fill-rule="evenodd" clip-rule="evenodd" d="M1.00825 7.47524H5.04126L10.0825 2.43398V18.566L5.04126 13.5248H1.00825V7.47524ZM12.099 6.46699V14.533L13.7626 12.3149C14.5692 11.2394 14.5692 9.76061 13.7626 8.68515L12.099 6.46699Z"/>
</mask>
<path fill-rule="evenodd" clip-rule="evenodd" d="M1.00825 7.47524H5.04126L10.0825 2.43398V18.566L5.04126 13.5248H1.00825V7.47524ZM12.099 6.46699V14.533L13.7626 12.3149C14.5692 11.2394 14.5692 9.76061 13.7626 8.68515L12.099 6.46699Z" fill="#EAEAEA"/>
<path d="M5.04126 7.47524V8.4835H5.45889L5.7542 8.18819L5.04126 7.47524ZM1.00825 7.47524V6.46699H0V7.47524H1.00825ZM10.0825 2.43398H11.0908V-0.000152405L9.36958 1.72104L10.0825 2.43398ZM10.0825 18.566L9.36958 19.279L11.0908 21.0002V18.566H10.0825ZM5.04126 13.5248L5.7542 12.8118L5.45889 12.5165H5.04126V13.5248ZM1.00825 13.5248H0V14.533H1.00825V13.5248ZM12.099 14.533H11.0908V17.5578L12.9056 15.138L12.099 14.533ZM12.099 6.46699L12.9056 5.86204L11.0908 3.44224V6.46699H12.099ZM13.7626 12.3149L12.956 11.7099L13.7626 12.3149ZM13.7626 8.68515L12.956 9.2901L13.7626 8.68515ZM5.04126 6.46699H1.00825V8.4835H5.04126V6.46699ZM9.36958 1.72104L4.32832 6.7623L5.7542 8.18819L10.7955 3.14693L9.36958 1.72104ZM11.0908 18.566V2.43398H9.07427V18.566H11.0908ZM4.32832 14.2377L9.36958 19.279L10.7955 17.8531L5.7542 12.8118L4.32832 14.2377ZM1.00825 14.533H5.04126V12.5165H1.00825V14.533ZM0 7.47524V13.5248H2.0165V7.47524H0ZM13.1073 14.533V6.46699H11.0908V14.533H13.1073ZM12.956 11.7099L11.2924 13.9281L12.9056 15.138L14.5692 12.9198L12.956 11.7099ZM12.956 9.2901C13.4938 10.0071 13.4938 10.9929 12.956 11.7099L14.5692 12.9198C15.6447 11.4858 15.6447 9.51415 14.5692 8.08019L12.956 9.2901ZM11.2924 7.07194L12.956 9.2901L14.5692 8.08019L12.9056 5.86204L11.2924 7.07194Z" fill="black" fill-opacity="0.1" mask="url(#path-1-outside-1_279_12407)"/>
</svg>
