<svg width="30" height="30" viewBox="0 0 30 30" fill="none" xmlns="http://www.w3.org/2000/svg">
<path d="M18.4375 28.4375H12.8125V19.375H11.625C10.9 19.375 10.3125 18.7875 10.3125 18.0625V15.6875C10.3125 14.9625 10.9 14.375 11.625 14.375H12.8125V11.25C12.8125 8.6625 14.9125 6.5625 17.5 6.5625H20.875C21.6 6.5625 22.1875 7.14998 22.1875 7.87498V10.875C22.1875 11.6 21.6 12.1875 20.875 12.1875H18.4375V14.375H20.7875C21.1875 14.375 21.55 14.55 21.8 14.85C22.05 15.15 22.15 15.55 22.075 15.9375L21.6 18.3125C21.475 18.925 20.9375 19.3625 20.3125 19.3625H18.4375V28.4375ZM14.6875 26.5625H16.5625V17.5H19.8625L20.1125 16.25H16.575V11.625C16.575 10.9 17.1625 10.3125 17.8875 10.3125H20.325V8.4375H17.5C15.95 8.4375 14.6875 9.7 14.6875 11.25V16.25H12.1875V17.5H14.6875V26.5625Z" fill="#A4A7AE"/>
<path d="M18.75 28.4375H11.25C4.4625 28.4375 1.5625 25.5375 1.5625 18.75V11.25C1.5625 4.4625 4.4625 1.5625 11.25 1.5625H18.75C25.5375 1.5625 28.4375 4.4625 28.4375 11.25V18.75C28.4375 25.5375 25.5375 28.4375 18.75 28.4375ZM11.25 3.4375C5.4875 3.4375 3.4375 5.4875 3.4375 11.25V18.75C3.4375 24.5125 5.4875 26.5625 11.25 26.5625H18.75C24.5125 26.5625 26.5625 24.5125 26.5625 18.75V11.25C26.5625 5.4875 24.5125 3.4375 18.75 3.4375H11.25Z" fill="#A4A7AE"/>
</svg>
