<svg width="20" height="20" viewBox="0 0 20 20" fill="none" xmlns="http://www.w3.org/2000/svg">
<path d="M13.3327 5.25033V5.00033C13.3327 3.15866 11.841 1.66699 9.99935 1.66699C8.15768 1.66699 6.66602 3.15866 6.66602 5.00033V9.16699" stroke="white" stroke-width="1.5" stroke-linecap="round" stroke-linejoin="round"/>
<path d="M7.5332 11.8253C8.14154 12.5003 9.02487 12.917 9.99987 12.917C11.8415 12.917 13.3332 11.4253 13.3332 9.58366V9.16699" stroke="white" stroke-width="1.5" stroke-linecap="round" stroke-linejoin="round"/>
<path d="M5.65039 14.1253C6.79206 15.1837 8.31706 15.8337 10.0004 15.8337C13.5171 15.8337 16.3754 12.9753 16.3754 9.45866V8.04199" stroke="white" stroke-width="1.5" stroke-linecap="round" stroke-linejoin="round"/>
<path d="M3.625 8.04199V9.45866C3.625 10.342 3.8 11.1753 4.125 11.942" stroke="white" stroke-width="1.5" stroke-linecap="round" stroke-linejoin="round"/>
<path d="M16.7254 2.36621L3.27539 15.8245" stroke="white" stroke-width="1.5" stroke-linecap="round" stroke-linejoin="round"/>
<path d="M9.16602 2.5V5" stroke="white" stroke-width="1.5" stroke-linecap="round" stroke-linejoin="round"/>
<path d="M10 15.833V18.333" stroke="white" stroke-width="1.5" stroke-linecap="round" stroke-linejoin="round"/>
</svg>
