<svg width="24" height="24" viewBox="0 0 24 24" fill="none" xmlns="http://www.w3.org/2000/svg">
<path d="M9.47188 15.2799C9.28188 15.2799 9.09187 15.2099 8.94187 15.0599C8.12187 14.2399 7.67188 13.1499 7.67188 11.9999C7.67188 9.60992 9.61187 7.66992 12.0019 7.66992C13.1519 7.66992 14.2419 8.11992 15.0619 8.93992C15.2019 9.07992 15.2819 9.26992 15.2819 9.46992C15.2819 9.66992 15.2019 9.85992 15.0619 9.99992L10.0019 15.0599C9.85187 15.2099 9.66188 15.2799 9.47188 15.2799ZM12.0019 9.16992C10.4419 9.16992 9.17188 10.4399 9.17188 11.9999C9.17188 12.4999 9.30187 12.9799 9.54187 13.3999L13.4019 9.53992C12.9819 9.29992 12.5019 9.16992 12.0019 9.16992Z" fill="#BBBBBB"/>
<path d="M5.59984 18.51C5.42984 18.51 5.24984 18.45 5.10984 18.33C4.03984 17.42 3.07984 16.3 2.25984 15C1.19984 13.35 1.19984 10.66 2.25984 8.99998C4.69984 5.17998 8.24984 2.97998 11.9998 2.97998C14.1998 2.97998 16.3698 3.73998 18.2698 5.16998C18.5998 5.41998 18.6698 5.88998 18.4198 6.21998C18.1698 6.54998 17.6998 6.61998 17.3698 6.36998C15.7298 5.12998 13.8698 4.47998 11.9998 4.47998C8.76984 4.47998 5.67984 6.41998 3.51984 9.80998C2.76984 10.98 2.76984 13.02 3.51984 14.19C4.26984 15.36 5.12984 16.37 6.07984 17.19C6.38984 17.46 6.42984 17.93 6.15984 18.25C6.01984 18.42 5.80984 18.51 5.59984 18.51Z" fill="#BBBBBB"/>
<path d="M11.9986 21.02C10.6686 21.02 9.3686 20.75 8.1186 20.22C7.7386 20.06 7.5586 19.62 7.7186 19.24C7.8786 18.86 8.3186 18.68 8.6986 18.84C9.7586 19.29 10.8686 19.52 11.9886 19.52C15.2186 19.52 18.3086 17.58 20.4686 14.19C21.2186 13.02 21.2186 10.98 20.4686 9.81C20.1586 9.32 19.8186 8.85 19.4586 8.41C19.1986 8.09 19.2486 7.62 19.5686 7.35C19.8886 7.09 20.3586 7.13 20.6286 7.46C21.0186 7.94 21.3986 8.46 21.7386 9C22.7986 10.65 22.7986 13.34 21.7386 15C19.2986 18.82 15.7486 21.02 11.9986 21.02Z" fill="#BBBBBB"/>
<path d="M12.6915 16.2701C12.3415 16.2701 12.0215 16.0201 11.9515 15.6601C11.8715 15.2501 12.1415 14.8601 12.5515 14.7901C13.6515 14.5901 14.5715 13.6701 14.7715 12.5701C14.8515 12.1601 15.2415 11.9001 15.6515 11.9701C16.0615 12.0501 16.3315 12.4401 16.2515 12.8501C15.9315 14.5801 14.5515 15.9501 12.8315 16.2701C12.7815 16.2601 12.7415 16.2701 12.6915 16.2701Z" fill="#BBBBBB"/>
<path d="M2.00141 22.75C1.81141 22.75 1.62141 22.68 1.47141 22.53C1.18141 22.24 1.18141 21.76 1.47141 21.47L8.94141 14C9.23141 13.71 9.71141 13.71 10.0014 14C10.2914 14.29 10.2914 14.77 10.0014 15.06L2.53141 22.53C2.38141 22.68 2.19141 22.75 2.00141 22.75Z" fill="#BBBBBB"/>
<path d="M14.5287 10.2199C14.3387 10.2199 14.1488 10.1499 13.9988 9.99994C13.7088 9.70994 13.7088 9.22994 13.9988 8.93994L21.4687 1.46994C21.7587 1.17994 22.2388 1.17994 22.5288 1.46994C22.8188 1.75994 22.8188 2.23994 22.5288 2.52994L15.0588 9.99994C14.9088 10.1499 14.7187 10.2199 14.5287 10.2199Z" fill="#BBBBBB"/>
</svg>
