<svg width="24" height="24" viewBox="0 0 24 24" fill="none" xmlns="http://www.w3.org/2000/svg">
<path d="M9.00141 17.7505C8.59141 17.7505 8.25141 17.4105 8.25141 17.0005V12.8105L7.53141 13.5305C7.24141 13.8205 6.76141 13.8205 6.47141 13.5305C6.18141 13.2405 6.18141 12.7605 6.47141 12.4705L8.47141 10.4705C8.68141 10.2605 9.01141 10.1905 9.29141 10.3105C9.57141 10.4205 9.75141 10.7005 9.75141 11.0005V17.0005C9.75141 17.4105 9.41141 17.7505 9.00141 17.7505Z" fill="#1AAA65"/>
<path d="M11.0014 13.7504C10.8114 13.7504 10.6214 13.6804 10.4714 13.5304L8.47141 11.5304C8.18141 11.2404 8.18141 10.7604 8.47141 10.4704C8.76141 10.1804 9.24141 10.1804 9.53141 10.4704L11.5314 12.4704C11.8214 12.7604 11.8214 13.2404 11.5314 13.5304C11.3814 13.6804 11.1914 13.7504 11.0014 13.7504Z" fill="#1AAA65"/>
<path d="M15 22.75H9C3.57 22.75 1.25 20.43 1.25 15V9C1.25 3.57 3.57 1.25 9 1.25H14C14.41 1.25 14.75 1.59 14.75 2C14.75 2.41 14.41 2.75 14 2.75H9C4.39 2.75 2.75 4.39 2.75 9V15C2.75 19.61 4.39 21.25 9 21.25H15C19.61 21.25 21.25 19.61 21.25 15V10C21.25 9.59 21.59 9.25 22 9.25C22.41 9.25 22.75 9.59 22.75 10V15C22.75 20.43 20.43 22.75 15 22.75Z" fill="#1AAA65"/>
<path d="M22 10.7505H18C14.58 10.7505 13.25 9.42048 13.25 6.00048V2.00048C13.25 1.70048 13.43 1.42048 13.71 1.31048C13.99 1.19048 14.31 1.26048 14.53 1.47048L22.53 9.47048C22.74 9.68048 22.81 10.0105 22.69 10.2905C22.57 10.5705 22.3 10.7505 22 10.7505ZM14.75 3.81048V6.00048C14.75 8.58048 15.42 9.25048 18 9.25048H20.19L14.75 3.81048Z" fill="#1AAA65"/>
</svg>
